<mxfile host="app.diagrams.net" agent="Mozilla/5.0 (Windows NT 10.0; Win64; x64) AppleWebKit/537.36 (KHTML, like Gecko) Chrome/134.0.0.0 Safari/537.36" version="26.2.3">
  <diagram name="Page-1" id="HVCSzqa5o-DlwclQSeZB">
    <mxGraphModel dx="1712" dy="675" grid="1" gridSize="10" guides="1" tooltips="1" connect="1" arrows="1" fold="1" page="1" pageScale="1" pageWidth="850" pageHeight="1100" math="0" shadow="0">
      <root>
        <mxCell id="0" />
        <mxCell id="1" parent="0" />
        <mxCell id="L1P0y1qNque_wEb9isBb-7" value="" style="points=[];aspect=fixed;html=1;align=center;shadow=0;dashed=0;fillColor=#FF6A00;strokeColor=none;shape=mxgraph.alibaba_cloud.user;" parent="1" vertex="1">
          <mxGeometry x="60" y="340" width="110" height="110" as="geometry" />
        </mxCell>
        <mxCell id="L1P0y1qNque_wEb9isBb-9" value="" style="rounded=0;whiteSpace=wrap;html=1;" parent="1" vertex="1">
          <mxGeometry x="230" y="238" width="370" height="130" as="geometry" />
        </mxCell>
        <mxCell id="L1P0y1qNque_wEb9isBb-10" value="" style="outlineConnect=0;dashed=0;verticalLabelPosition=bottom;verticalAlign=top;align=center;html=1;shape=mxgraph.aws3.android;fillColor=#FFD44F;gradientColor=none;" parent="1" vertex="1">
          <mxGeometry x="270" y="287" width="100" height="73" as="geometry" />
        </mxCell>
        <mxCell id="R3J2JmFFshAX2nrimfKc-1" value="" style="endArrow=classic;html=1;rounded=0;" edge="1" parent="1" target="L1P0y1qNque_wEb9isBb-10">
          <mxGeometry width="50" height="50" relative="1" as="geometry">
            <mxPoint x="270" y="332" as="sourcePoint" />
            <mxPoint x="150" y="280" as="targetPoint" />
          </mxGeometry>
        </mxCell>
        <mxCell id="R3J2JmFFshAX2nrimfKc-7" value="" style="endArrow=classic;html=1;rounded=0;" edge="1" parent="1">
          <mxGeometry width="50" height="50" relative="1" as="geometry">
            <mxPoint x="320" y="450" as="sourcePoint" />
            <mxPoint x="320" y="350" as="targetPoint" />
            <Array as="points">
              <mxPoint x="320" y="350" />
              <mxPoint x="320" y="360" />
            </Array>
          </mxGeometry>
        </mxCell>
        <mxCell id="R3J2JmFFshAX2nrimfKc-8" value="" style="endArrow=none;html=1;rounded=0;" edge="1" parent="1">
          <mxGeometry width="50" height="50" relative="1" as="geometry">
            <mxPoint x="120" y="470" as="sourcePoint" />
            <mxPoint x="320" y="470" as="targetPoint" />
          </mxGeometry>
        </mxCell>
        <mxCell id="R3J2JmFFshAX2nrimfKc-9" value="" style="endArrow=none;html=1;rounded=0;" edge="1" parent="1">
          <mxGeometry width="50" height="50" relative="1" as="geometry">
            <mxPoint x="320" y="470" as="sourcePoint" />
            <mxPoint x="320" y="430" as="targetPoint" />
          </mxGeometry>
        </mxCell>
        <mxCell id="R3J2JmFFshAX2nrimfKc-11" value="" style="endArrow=none;html=1;rounded=0;exitX=0.545;exitY=1.018;exitDx=0;exitDy=0;exitPerimeter=0;" edge="1" parent="1" source="L1P0y1qNque_wEb9isBb-7">
          <mxGeometry width="50" height="50" relative="1" as="geometry">
            <mxPoint x="540" y="460" as="sourcePoint" />
            <mxPoint x="120" y="470" as="targetPoint" />
          </mxGeometry>
        </mxCell>
        <mxCell id="R3J2JmFFshAX2nrimfKc-12" value="Python" style="text;html=1;align=center;verticalAlign=middle;whiteSpace=wrap;rounded=0;" vertex="1" parent="1">
          <mxGeometry x="330" y="250" width="40" height="30" as="geometry" />
        </mxCell>
        <mxCell id="R3J2JmFFshAX2nrimfKc-13" value="" style="endArrow=classic;startArrow=classic;html=1;rounded=0;" edge="1" parent="1">
          <mxGeometry width="50" height="50" relative="1" as="geometry">
            <mxPoint x="480" y="310" as="sourcePoint" />
            <mxPoint x="390" y="310" as="targetPoint" />
            <Array as="points">
              <mxPoint x="470" y="310" />
            </Array>
          </mxGeometry>
        </mxCell>
        <mxCell id="R3J2JmFFshAX2nrimfKc-14" value="" style="dashed=0;outlineConnect=0;html=1;align=center;labelPosition=center;verticalLabelPosition=bottom;verticalAlign=top;shape=mxgraph.weblogos.html5" vertex="1" parent="1">
          <mxGeometry x="530" y="266" width="52.4" height="74" as="geometry" />
        </mxCell>
        <mxCell id="R3J2JmFFshAX2nrimfKc-16" value="" style="endArrow=classic;html=1;rounded=0;" edge="1" parent="1" target="L1P0y1qNque_wEb9isBb-10">
          <mxGeometry width="50" height="50" relative="1" as="geometry">
            <mxPoint x="320" y="230" as="sourcePoint" />
            <mxPoint x="600" y="290" as="targetPoint" />
          </mxGeometry>
        </mxCell>
        <mxCell id="R3J2JmFFshAX2nrimfKc-17" value="Python" style="text;html=1;align=center;verticalAlign=middle;whiteSpace=wrap;rounded=0;" vertex="1" parent="1">
          <mxGeometry x="450" y="250" width="100" height="30" as="geometry" />
        </mxCell>
        <mxCell id="R3J2JmFFshAX2nrimfKc-20" value="Amazon DynamoDB" style="sketch=0;outlineConnect=0;fontColor=#232F3E;gradientColor=none;strokeColor=#ffffff;fillColor=#232F3E;dashed=0;verticalLabelPosition=middle;verticalAlign=bottom;align=center;html=1;whiteSpace=wrap;fontSize=10;fontStyle=1;spacing=3;shape=mxgraph.aws4.productIcon;prIcon=mxgraph.aws4.dynamodb;" vertex="1" parent="1">
          <mxGeometry x="280" y="140" width="70" height="90" as="geometry" />
        </mxCell>
        <mxCell id="R3J2JmFFshAX2nrimfKc-26" value="" style="endArrow=classic;html=1;rounded=0;" edge="1" parent="1" source="R3J2JmFFshAX2nrimfKc-20">
          <mxGeometry width="50" height="50" relative="1" as="geometry">
            <mxPoint x="550" y="350" as="sourcePoint" />
            <mxPoint x="450" y="185" as="targetPoint" />
          </mxGeometry>
        </mxCell>
        <mxCell id="R3J2JmFFshAX2nrimfKc-27" value="" style="outlineConnect=0;dashed=0;verticalLabelPosition=bottom;verticalAlign=top;align=center;html=1;shape=mxgraph.aws3.lambda_function;fillColor=#F58534;gradientColor=none;" vertex="1" parent="1">
          <mxGeometry x="450" y="140" width="69" height="80" as="geometry" />
        </mxCell>
        <mxCell id="R3J2JmFFshAX2nrimfKc-28" value="" style="endArrow=classic;html=1;rounded=0;" edge="1" parent="1">
          <mxGeometry width="50" height="50" relative="1" as="geometry">
            <mxPoint x="520" y="180" as="sourcePoint" />
            <mxPoint x="600" y="180" as="targetPoint" />
          </mxGeometry>
        </mxCell>
        <mxCell id="R3J2JmFFshAX2nrimfKc-29" value="Amazon API Gateway" style="sketch=0;outlineConnect=0;fontColor=#232F3E;gradientColor=none;strokeColor=#ffffff;fillColor=#232F3E;dashed=0;verticalLabelPosition=middle;verticalAlign=bottom;align=center;html=1;whiteSpace=wrap;fontSize=10;fontStyle=1;spacing=3;shape=mxgraph.aws4.productIcon;prIcon=mxgraph.aws4.api_gateway;" vertex="1" parent="1">
          <mxGeometry x="600" y="140" width="80" height="110" as="geometry" />
        </mxCell>
        <mxCell id="R3J2JmFFshAX2nrimfKc-30" value="" style="endArrow=classic;html=1;rounded=0;entryX=0.625;entryY=1;entryDx=0;entryDy=0;entryPerimeter=0;" edge="1" parent="1" target="R3J2JmFFshAX2nrimfKc-29">
          <mxGeometry width="50" height="50" relative="1" as="geometry">
            <mxPoint x="650" y="310" as="sourcePoint" />
            <mxPoint x="650" y="260" as="targetPoint" />
            <Array as="points">
              <mxPoint x="650" y="360" />
            </Array>
          </mxGeometry>
        </mxCell>
        <mxCell id="R3J2JmFFshAX2nrimfKc-33" value="" style="aspect=fixed;sketch=0;html=1;dashed=0;whitespace=wrap;verticalLabelPosition=bottom;verticalAlign=top;fillColor=#2875E2;strokeColor=#ffffff;points=[[0.005,0.63,0],[0.1,0.2,0],[0.9,0.2,0],[0.5,0,0],[0.995,0.63,0],[0.72,0.99,0],[0.5,1,0],[0.28,0.99,0]];shape=mxgraph.kubernetes.icon2;kubernetesLabel=1;prIcon=api" vertex="1" parent="1">
          <mxGeometry x="630" y="350" width="50" height="48" as="geometry" />
        </mxCell>
        <mxCell id="R3J2JmFFshAX2nrimfKc-34" value="" style="endArrow=classic;html=1;rounded=0;" edge="1" parent="1">
          <mxGeometry width="50" height="50" relative="1" as="geometry">
            <mxPoint x="350" y="520" as="sourcePoint" />
            <mxPoint x="350" y="350" as="targetPoint" />
            <Array as="points">
              <mxPoint x="350" y="350" />
            </Array>
          </mxGeometry>
        </mxCell>
        <mxCell id="R3J2JmFFshAX2nrimfKc-39" value="" style="endArrow=classic;html=1;rounded=0;exitX=0.98;exitY=0.479;exitDx=0;exitDy=0;exitPerimeter=0;" edge="1" parent="1" source="R3J2JmFFshAX2nrimfKc-33">
          <mxGeometry width="50" height="50" relative="1" as="geometry">
            <mxPoint x="550" y="280" as="sourcePoint" />
            <mxPoint x="740" y="373" as="targetPoint" />
          </mxGeometry>
        </mxCell>
        <mxCell id="R3J2JmFFshAX2nrimfKc-40" value="Text" style="text;html=1;align=center;verticalAlign=middle;whiteSpace=wrap;rounded=0;" vertex="1" parent="1">
          <mxGeometry x="540" y="240" width="60" height="30" as="geometry" />
        </mxCell>
        <mxCell id="R3J2JmFFshAX2nrimfKc-41" value="Food and Dinks API" style="rounded=0;whiteSpace=wrap;html=1;" vertex="1" parent="1">
          <mxGeometry x="740" y="344" width="100" height="60" as="geometry" />
        </mxCell>
        <mxCell id="R3J2JmFFshAX2nrimfKc-42" value="Popular Movie API Consumer 1" style="rounded=0;whiteSpace=wrap;html=1;" vertex="1" parent="1">
          <mxGeometry x="420" y="404" width="100" height="66" as="geometry" />
        </mxCell>
        <mxCell id="R3J2JmFFshAX2nrimfKc-46" value="Available&amp;nbsp; Car API Consumer 2" style="rounded=0;whiteSpace=wrap;html=1;" vertex="1" parent="1">
          <mxGeometry x="551" y="404" width="99" height="66" as="geometry" />
        </mxCell>
        <mxCell id="R3J2JmFFshAX2nrimfKc-48" value="" style="endArrow=classic;html=1;rounded=0;" edge="1" parent="1">
          <mxGeometry width="50" height="50" relative="1" as="geometry">
            <mxPoint x="540" y="420" as="sourcePoint" />
            <mxPoint x="540" y="334" as="targetPoint" />
          </mxGeometry>
        </mxCell>
        <mxCell id="R3J2JmFFshAX2nrimfKc-49" value="" style="endArrow=none;html=1;rounded=0;exitX=1;exitY=0.25;exitDx=0;exitDy=0;" edge="1" parent="1" source="R3J2JmFFshAX2nrimfKc-42">
          <mxGeometry width="50" height="50" relative="1" as="geometry">
            <mxPoint x="550" y="280" as="sourcePoint" />
            <mxPoint x="540" y="420" as="targetPoint" />
          </mxGeometry>
        </mxCell>
        <mxCell id="R3J2JmFFshAX2nrimfKc-50" value="" style="endArrow=classic;html=1;rounded=0;" edge="1" parent="1">
          <mxGeometry width="50" height="50" relative="1" as="geometry">
            <mxPoint x="569.7" y="398" as="sourcePoint" />
            <mxPoint x="569.7" y="338" as="targetPoint" />
            <Array as="points">
              <mxPoint x="569.7" y="338" />
            </Array>
          </mxGeometry>
        </mxCell>
        <mxCell id="R3J2JmFFshAX2nrimfKc-51" value="" style="endArrow=none;html=1;rounded=0;" edge="1" parent="1">
          <mxGeometry width="50" height="50" relative="1" as="geometry">
            <mxPoint x="350" y="520" as="sourcePoint" />
            <mxPoint x="800" y="520" as="targetPoint" />
          </mxGeometry>
        </mxCell>
        <mxCell id="R3J2JmFFshAX2nrimfKc-55" value="" style="endArrow=none;html=1;rounded=0;" edge="1" parent="1">
          <mxGeometry width="50" height="50" relative="1" as="geometry">
            <mxPoint x="800" y="520" as="sourcePoint" />
            <mxPoint x="800" y="400" as="targetPoint" />
          </mxGeometry>
        </mxCell>
      </root>
    </mxGraphModel>
  </diagram>
</mxfile>
